{
	"asset":{
		"generator":"Khronos glTF Blender I/O v4.5.47",
		"version":"2.0"
	},
	"extensionsUsed":[
		"KHR_materials_transmission"
	],
	"scene":0,
	"scenes":[
		{
			"name":"Scene",
			"nodes":[
				9
			]
		}
	],
	"nodes":[
		{
			"mesh":0,
			"name":"Object_5",
			"translation":[
				0.003482620930299163,
				0.09214569628238678,
				0.0926823541522026
			]
		},
		{
			"children":[
				0
			],
			"name":"Frame_1"
		},
		{
			"mesh":1,
			"name":"Object_9",
			"translation":[
				0.003482620930299163,
				0.09214569628238678,
				0.0926823541522026
			]
		},
		{
			"children":[
				2
			],
			"name":"Glasses_3"
		},
		{
			"mesh":2,
			"name":"Object_7",
			"translation":[
				0.003482620930299163,
				0.09214569628238678,
				0.0926823541522026
			]
		},
		{
			"children":[
				4
			],
			"name":"Handles_2"
		},
		{
			"children":[
				1,
				3,
				5
			],
			"name":"glasses OBJ.OBJ_0"
		},
		{
			"children":[
				6
			],
			"name":"GLTF_SceneRootNode"
		},
		{
			"children":[
				7
			],
			"name":"root"
		},
		{
			"children":[
				8
			],
			"name":"Sketchfab_model"
		}
	],
	"materials":[
		{
			"name":"Frame",
			"pbrMetallicRoughness":{
				"baseColorFactor":[
					0.5,
					0.5,
					0.5,
					1
				],
				"metallicFactor":0,
				"roughnessFactor":0.1541539579629898
			}
		},
		{
			"alphaMode":"BLEND",
			"extensions":{
				"KHR_materials_transmission":{
					"transmissionFactor":1
				}
			},
			"name":"Frame.1",
			"pbrMetallicRoughness":{
				"baseColorFactor":[
					1,
					1,
					1,
					0.25
				],
				"metallicFactor":0,
				"roughnessFactor":0.2273246943950653
			}
		},
		{
			"name":"Handles",
			"pbrMetallicRoughness":{
				"baseColorTexture":{
					"index":0
				},
				"metallicFactor":0,
				"metallicRoughnessTexture":{
					"index":1
				}
			}
		}
	],
	"meshes":[
		{
			"name":"Object_0",
			"primitives":[
				{
					"attributes":{
						"POSITION":0,
						"NORMAL":1,
						"TEXCOORD_0":2
					},
					"indices":3,
					"material":0
				}
			]
		},
		{
			"name":"Object_2",
			"primitives":[
				{
					"attributes":{
						"POSITION":4,
						"NORMAL":5,
						"TEXCOORD_0":6
					},
					"indices":7,
					"material":1
				}
			]
		},
		{
			"name":"Object_1",
			"primitives":[
				{
					"attributes":{
						"POSITION":8,
						"NORMAL":9,
						"TEXCOORD_0":10
					},
					"indices":11,
					"material":2
				}
			]
		}
	],
	"textures":[
		{
			"sampler":0,
			"source":0
		},
		{
			"sampler":0,
			"source":1
		}
	],
	"images":[
		{
			"mimeType":"image/jpeg",
			"name":"Image_0",
			"uri":"Image_0.jpg"
		},
		{
			"mimeType":"image/png",
			"name":"Image_1",
			"uri":"Image_1.png"
		}
	],
	"accessors":[
		{
			"bufferView":0,
			"componentType":5126,
			"count":22370,
			"max":[
				0.6997597813606262,
				0.11996302008628845,
				0.02205514907836914
			],
			"min":[
				-0.7067943215370178,
				-0.362581729888916,
				-0.12032639980316162
			],
			"type":"VEC3"
		},
		{
			"bufferView":1,
			"componentType":5126,
			"count":22370,
			"type":"VEC3"
		},
		{
			"bufferView":2,
			"componentType":5126,
			"count":22370,
			"type":"VEC2"
		},
		{
			"bufferView":3,
			"componentType":5123,
			"count":122208,
			"type":"SCALAR"
		},
		{
			"bufferView":4,
			"componentType":5126,
			"count":32288,
			"max":[
				0.6381928324699402,
				0.0895041823387146,
				-0.007897406816482544
			],
			"min":[
				-0.6451579332351685,
				-0.3294028639793396,
				-0.09671290218830109
			],
			"type":"VEC3"
		},
		{
			"bufferView":5,
			"componentType":5126,
			"count":32288,
			"type":"VEC3"
		},
		{
			"bufferView":6,
			"componentType":5126,
			"count":32288,
			"type":"VEC2"
		},
		{
			"bufferView":7,
			"componentType":5123,
			"count":173952,
			"type":"SCALAR"
		},
		{
			"bufferView":8,
			"componentType":5126,
			"count":15330,
			"max":[
				0.6983185410499573,
				0.06943479180335999,
				-0.11872686445713043
			],
			"min":[
				-0.7052367329597473,
				-0.21212127804756165,
				-1.3129159212112427
			],
			"type":"VEC3"
		},
		{
			"bufferView":9,
			"componentType":5126,
			"count":15330,
			"type":"VEC3"
		},
		{
			"bufferView":10,
			"componentType":5126,
			"count":15330,
			"type":"VEC2"
		},
		{
			"bufferView":11,
			"componentType":5123,
			"count":65760,
			"type":"SCALAR"
		}
	],
	"bufferViews":[
		{
			"buffer":0,
			"byteLength":268440,
			"byteOffset":0,
			"target":34962
		},
		{
			"buffer":0,
			"byteLength":268440,
			"byteOffset":268440,
			"target":34962
		},
		{
			"buffer":0,
			"byteLength":178960,
			"byteOffset":536880,
			"target":34962
		},
		{
			"buffer":0,
			"byteLength":244416,
			"byteOffset":715840,
			"target":34963
		},
		{
			"buffer":0,
			"byteLength":387456,
			"byteOffset":960256,
			"target":34962
		},
		{
			"buffer":0,
			"byteLength":387456,
			"byteOffset":1347712,
			"target":34962
		},
		{
			"buffer":0,
			"byteLength":258304,
			"byteOffset":1735168,
			"target":34962
		},
		{
			"buffer":0,
			"byteLength":347904,
			"byteOffset":1993472,
			"target":34963
		},
		{
			"buffer":0,
			"byteLength":183960,
			"byteOffset":2341376,
			"target":34962
		},
		{
			"buffer":0,
			"byteLength":183960,
			"byteOffset":2525336,
			"target":34962
		},
		{
			"buffer":0,
			"byteLength":122640,
			"byteOffset":2709296,
			"target":34962
		},
		{
			"buffer":0,
			"byteLength":131520,
			"byteOffset":2831936,
			"target":34963
		}
	],
	"samplers":[
		{
			"magFilter":9729,
			"minFilter":9987
		}
	],
	"buffers":[
		{
			"byteLength":2963456,
			"uri":"grey.bin"
		}
	]
}
